<svg width="33" height="40" viewBox="0 0 33 40" fill="none" xmlns="http://www.w3.org/2000/svg">
<g filter="url(#filter0_d_1922_1608)">
<path d="M26.6785 19.9427C25.6076 18.3799 24.213 17.0955 22.5934 16.1643C24.4901 14.467 25.686 12.0018 25.686 9.26225C25.6861 4.15505 21.5311 0 16.4238 0C11.3166 0 7.1615 4.15505 7.1615 9.26225C7.1615 12.0018 8.35743 14.4669 10.2542 16.1643C8.63447 17.0956 7.23995 18.3799 6.16902 19.9427C4.75006 22.0134 4 24.4315 4 26.9359V32H28.8476V26.9359C28.8477 24.4315 28.0976 22.0133 26.6785 19.9427ZM9.10099 9.26225C9.10099 5.22444 12.386 1.93939 16.4239 1.93939C20.4617 1.93939 23.7467 5.22444 23.7467 9.26225C23.7467 13.3002 20.4617 16.5852 16.4239 16.5852C12.386 16.5852 9.10099 13.3002 9.10099 9.26225ZM5.93939 30.0606V26.9359C5.93939 22.8273 8.31922 19.1418 12.0403 17.4197C13.346 18.1242 14.839 18.5245 16.4238 18.5245C18.0085 18.5245 19.5015 18.1241 20.8072 17.4197C24.5284 19.1417 26.9081 22.8273 26.9081 26.9359V30.0606H5.93939Z" fill="white"/>
</g>
<defs>
<filter id="filter0_d_1922_1608" x="0" y="0" width="32.8476" height="40" filterUnits="userSpaceOnUse" color-interpolation-filters="sRGB">
<feFlood flood-opacity="0" result="BackgroundImageFix"/>
<feColorMatrix in="SourceAlpha" type="matrix" values="0 0 0 0 0 0 0 0 0 0 0 0 0 0 0 0 0 0 127 0" result="hardAlpha"/>
<feOffset dy="4"/>
<feGaussianBlur stdDeviation="2"/>
<feComposite in2="hardAlpha" operator="out"/>
<feColorMatrix type="matrix" values="0 0 0 0 0 0 0 0 0 0 0 0 0 0 0 0 0 0 0.25 0"/>
<feBlend mode="normal" in2="BackgroundImageFix" result="effect1_dropShadow_1922_1608"/>
<feBlend mode="normal" in="SourceGraphic" in2="effect1_dropShadow_1922_1608" result="shape"/>
</filter>
</defs>
</svg>
